<?xml version="1.0" standalone="no"?>
<!DOCTYPE svg PUBLIC "-//W3C//DTD SVG 20010904//EN"
 "http://www.w3.org/TR/2001/REC-SVG-20010904/DTD/svg10.dtd">
<svg version="1.0" xmlns="http://www.w3.org/2000/svg"
 width="225.000000pt" height="225.000000pt" viewBox="0 0 225.000000 225.000000"
 preserveAspectRatio="xMidYMid meet">
<metadata>
Created by potrace 1.11, written by Peter Selinger 2001-2013
</metadata>
<g transform="translate(0.000000,225.000000) scale(0.100000,-0.100000)"
fill="#000000" stroke="none">
<path d="M927 2235 c-297 -56 -566 -232 -736 -479 -54 -78 -130 -248 -158
-353 -24 -89 -27 -115 -27 -278 0 -163 3 -189 27 -278 87 -325 296 -582 592
-728 69 -34 162 -70 220 -86 91 -24 116 -27 280 -27 164 0 189 3 280 27 136
37 318 128 423 212 84 68 172 162 231 249 54 78 130 248 158 353 24 89 27 115
27 278 0 164 -3 189 -27 280 -37 136 -128 318 -212 423 -68 84 -162 172 -249
231 -79 55 -249 130 -353 157 -125 33 -354 42 -476 19z m395 -675 c407 -671
532 -876 545 -897 14 -20 11 -23 -54 -62 -38 -23 -72 -41 -75 -41 -4 0 -61 90
-128 200 l-122 200 -363 0 -363 0 -122 -200 c-67 -110 -124 -200 -128 -200 -3
0 -37 18 -74 41 -47 28 -66 44 -61 53 322 534 748 1225 753 1219 4 -4 90 -145
192 -313z"/>
<path d="M1107 1529 c-45 -72 -237 -391 -237 -394 0 -3 115 -5 255 -5 140 0
255 2 255 4 0 7 -239 399 -249 409 -5 5 -15 0 -24 -14z"/>
</g>
</svg>
