<?xml version="1.0" encoding="UTF-8" ?>
<!DOCTYPE svg PUBLIC "-//W3C//DTD SVG 1.1//EN" "http://www.w3.org/Graphics/SVG/1.1/DTD/svg11.dtd">
<svg width="512pt" height="512pt" viewBox="0 0 512 512" version="1.1" xmlns="http://www.w3.org/2000/svg">
<path fill="#4b4b4a" d=" M 0.00 0.00 L 512.00 0.00 L 512.00 512.00 L 0.00 512.00 L 0.00 0.00 Z" />
<path fill="#534c47" d=" M 215.39 36.56 C 218.58 35.98 220.92 30.25 224.03 34.95 C 256.04 60.95 284.19 91.45 313.82 120.14 C 321.81 126.14 331.46 129.44 339.20 135.84 C 349.33 140.72 351.68 154.36 345.03 163.03 C 338.20 171.17 332.48 180.40 324.67 187.68 C 311.81 194.95 300.07 182.22 288.10 178.88 C 285.85 178.42 284.17 177.61 286.23 175.41 C 298.18 177.20 308.21 189.36 320.69 185.67 C 330.82 178.58 337.60 167.48 344.35 157.35 C 350.50 142.31 331.68 134.17 320.91 129.00 C 319.97 128.31 319.05 127.60 318.12 126.90 C 315.76 124.60 313.31 122.41 310.88 120.19 C 307.35 115.74 303.47 111.55 299.10 107.93 C 292.54 101.17 286.33 93.97 278.84 88.21 C 272.56 79.86 263.79 73.91 256.63 66.39 C 251.96 62.89 247.99 57.27 242.07 56.01 C 200.44 93.00 158.51 129.93 117.25 167.36 C 117.84 176.80 131.94 181.08 131.89 190.81 C 116.95 198.73 99.59 196.61 83.34 197.29 C 69.30 209.28 55.80 221.94 41.92 234.14 C 49.53 247.86 61.98 259.02 73.26 269.83 C 79.52 277.53 86.72 284.38 93.97 291.13 C 99.45 297.01 104.97 302.90 111.06 308.17 C 115.12 312.72 119.36 317.14 123.98 321.15 C 127.95 325.51 132.17 329.64 136.24 333.91 C 128.46 330.35 123.91 322.08 117.07 316.91 C 84.62 283.03 49.62 251.43 19.77 215.22 C 18.98 213.82 17.27 212.12 18.33 210.44 C 30.03 201.88 40.50 191.84 51.30 182.22 C 74.25 190.49 99.71 199.63 124.11 192.14 C 126.31 190.98 131.10 190.79 129.82 187.26 C 116.98 174.06 103.51 161.15 93.00 145.97 C 132.92 108.99 174.50 72.85 215.39 36.56 Z" />
<path fill="#5a4d43" d=" M 117.25 167.36 C 158.51 129.93 200.44 93.00 242.07 56.01 C 247.99 57.27 251.96 62.89 256.63 66.39 C 263.79 73.91 272.56 79.86 278.84 88.21 C 271.49 83.55 266.52 75.27 258.17 72.23 C 235.43 91.45 214.01 112.30 190.30 130.38 C 171.30 147.89 153.27 166.53 133.32 183.10 C 139.38 194.06 122.96 195.43 116.21 199.30 C 96.27 213.94 79.20 232.32 60.19 248.20 C 56.26 256.95 70.08 262.54 73.26 269.83 C 61.98 259.02 49.53 247.86 41.92 234.14 C 55.80 221.94 69.30 209.28 83.34 197.29 C 99.59 196.61 116.95 198.73 131.89 190.81 C 131.94 181.08 117.84 176.80 117.25 167.36 Z" />
<path fill="#614d40" d=" M 258.17 72.23 C 266.52 75.27 271.49 83.55 278.84 88.21 C 286.33 93.97 292.54 101.17 299.10 107.93 C 289.94 102.38 283.74 92.77 273.88 88.09 C 265.55 93.95 259.37 102.20 251.61 108.65 C 224.32 113.35 196.56 124.73 178.64 146.65 C 167.56 159.13 162.26 175.11 157.78 190.78 C 130.44 216.11 101.92 240.38 74.59 265.61 C 77.46 275.57 88.98 281.82 93.97 291.13 C 86.72 284.38 79.52 277.53 73.26 269.83 C 70.08 262.54 56.26 256.95 60.19 248.20 C 79.20 232.32 96.27 213.94 116.21 199.30 C 122.96 195.43 139.38 194.06 133.32 183.10 C 153.27 166.53 171.30 147.89 190.30 130.38 C 214.01 112.30 235.43 91.45 258.17 72.23 Z" />
<path fill="#694e3c" d=" M 273.88 88.09 C 283.74 92.77 289.94 102.38 299.10 107.93 C 303.47 111.55 307.35 115.74 310.88 120.19 C 302.60 113.02 291.62 113.98 281.52 112.56 C 253.62 110.23 223.83 114.02 200.24 130.18 C 182.35 141.38 169.66 159.63 163.83 179.77 C 159.21 194.35 161.50 209.91 161.95 224.88 C 141.27 245.77 117.99 264.45 96.12 284.13 C 95.22 285.17 94.64 286.51 94.98 287.91 C 99.16 295.51 107.21 300.44 111.06 308.17 C 104.97 302.90 99.45 297.01 93.97 291.13 C 88.98 281.82 77.46 275.57 74.59 265.61 C 101.92 240.38 130.44 216.11 157.78 190.78 C 162.26 175.11 167.56 159.13 178.64 146.65 C 196.56 124.73 224.32 113.35 251.61 108.65 C 259.37 102.20 265.55 93.95 273.88 88.09 Z" />
<path fill="#7b4f35" d=" M 200.24 130.18 C 223.83 114.02 253.62 110.23 281.52 112.56 C 291.62 113.98 302.60 113.02 310.88 120.19 C 313.31 122.41 315.76 124.60 318.12 126.90 C 280.66 109.79 233.28 109.63 198.75 133.69 C 167.91 153.37 156.29 195.66 171.06 228.82 C 173.49 242.46 186.51 251.25 190.83 263.77 C 169.83 282.48 148.78 301.19 127.89 320.00 C 130.54 324.94 134.64 328.98 137.17 334.00 L 136.24 333.91 C 132.17 329.64 127.95 325.51 123.98 321.15 C 120.72 314.64 114.05 310.08 111.87 303.07 C 131.90 284.47 153.10 266.78 172.97 248.05 C 176.53 245.33 172.70 241.92 172.06 238.96 C 163.06 220.63 160.54 199.77 163.83 179.77 C 169.66 159.63 182.35 141.38 200.24 130.18 Z" />
<path fill="#a44e3a" d=" M 198.75 133.69 C 233.28 109.63 280.66 109.79 318.12 126.90 C 319.05 127.60 319.97 128.31 320.91 129.00 C 321.66 129.98 322.40 130.96 323.16 131.94 C 311.98 128.35 301.73 121.96 290.02 119.98 C 265.84 115.43 239.73 115.59 217.02 126.02 C 197.53 134.25 180.15 149.35 172.23 169.28 C 160.00 198.09 169.25 233.92 193.96 253.16 C 200.35 260.54 209.67 264.25 217.90 269.14 L 217.80 270.13 C 214.52 268.68 211.28 267.15 207.87 266.08 C 198.57 261.07 190.73 253.94 182.95 246.91 C 178.65 241.10 174.82 234.98 171.06 228.82 C 156.29 195.66 167.91 153.37 198.75 133.69 Z" />
<path fill="#d5513a" d=" M 217.02 126.02 C 239.73 115.59 265.84 115.43 290.02 119.98 C 301.73 121.96 311.98 128.35 323.16 131.94 C 324.57 133.21 325.87 134.60 327.12 136.03 C 305.28 124.52 280.74 116.39 255.72 119.59 C 230.75 120.38 205.54 129.77 188.24 148.20 C 163.78 172.69 163.36 214.45 184.98 240.91 C 187.39 245.62 191.67 248.94 195.01 252.95 L 193.96 253.16 C 169.25 233.92 160.00 198.09 172.23 169.28 C 180.15 149.35 197.53 134.25 217.02 126.02 Z" />
<path fill="#ee5633" d=" M 255.72 119.59 C 280.74 116.39 305.28 124.52 327.12 136.03 C 327.59 136.26 328.52 136.70 328.99 136.93 C 330.69 138.93 332.36 140.96 334.11 142.93 C 310.67 127.95 283.75 118.91 255.72 119.59 Z" />
<path fill="#ff7d22" d=" M 188.24 148.20 C 205.54 129.77 230.75 120.38 255.72 119.59 C 283.75 118.91 310.67 127.95 334.11 142.93 C 336.39 145.83 342.51 148.13 340.69 152.68 C 335.28 161.95 327.96 169.91 321.38 178.35 C 319.97 179.98 318.88 182.69 316.23 181.92 C 293.32 169.05 265.27 157.38 239.15 167.88 C 220.09 173.71 217.44 202.45 234.29 212.70 C 262.79 230.13 296.13 237.93 324.78 255.19 C 354.15 276.61 360.22 320.94 341.07 351.03 C 327.80 372.56 303.91 384.29 280.07 390.00 C 262.39 392.02 244.56 392.95 226.94 390.00 C 204.11 384.17 182.21 374.66 163.14 360.72 C 162.03 359.56 160.88 358.44 159.71 357.36 C 169.47 345.90 178.49 333.72 189.31 323.23 C 192.31 322.29 194.44 326.31 197.02 327.01 C 215.58 340.96 238.87 347.88 261.95 347.96 C 272.14 346.78 283.16 344.30 290.30 336.34 C 300.83 324.71 300.27 302.52 284.92 295.06 C 252.85 274.81 211.88 269.20 184.98 240.91 C 163.36 214.45 163.78 172.69 188.24 148.20 Z" />
<path fill="#734b4a" d=" M 320.91 129.00 C 331.68 134.17 350.50 142.31 344.35 157.35 C 337.60 167.48 330.82 178.58 320.69 185.67 C 308.21 189.36 298.18 177.20 286.23 175.41 C 274.31 171.75 261.34 168.14 248.99 172.01 C 241.36 170.96 246.71 175.35 247.10 178.07 C 244.18 177.05 242.97 174.19 241.64 171.67 C 264.54 160.10 290.02 172.71 311.15 182.82 C 320.82 186.57 327.41 175.82 332.35 169.34 C 336.95 162.88 345.31 155.26 341.38 146.64 C 338.82 141.97 333.68 139.17 328.99 136.93 C 328.52 136.70 327.59 136.26 327.12 136.03 C 325.87 134.60 324.57 133.21 323.16 131.94 C 322.40 130.96 321.66 129.98 320.91 129.00 Z" />
<path fill="#a64b49" d=" M 328.99 136.93 C 333.68 139.17 338.82 141.97 341.38 146.64 C 345.31 155.26 336.95 162.88 332.35 169.34 C 327.41 175.82 320.82 186.57 311.15 182.82 C 290.02 172.71 264.54 160.10 241.64 171.67 L 240.97 172.12 C 240.43 172.05 239.36 171.90 238.82 171.83 C 241.59 166.56 248.71 166.87 253.66 165.60 C 275.98 161.83 296.23 174.91 316.23 181.92 C 318.88 182.69 319.97 179.98 321.38 178.35 C 327.96 169.91 335.28 161.95 340.69 152.68 C 342.51 148.13 336.39 145.83 334.11 142.93 C 332.36 140.96 330.69 138.93 328.99 136.93 Z" />
<path fill="#ca5036" d=" M 239.15 167.88 C 265.27 157.38 293.32 169.05 316.23 181.92 C 296.23 174.91 275.98 161.83 253.66 165.60 C 248.71 166.87 241.59 166.56 238.82 171.83 C 229.73 176.75 224.20 188.02 227.91 198.05 C 233.26 211.94 249.01 216.07 261.30 221.72 C 277.33 227.59 292.91 235.00 309.20 239.95 C 310.59 241.22 311.89 242.58 313.18 243.95 C 295.96 237.82 279.18 230.44 262.12 223.86 C 249.35 217.69 232.63 213.70 226.67 199.36 C 222.10 189.17 227.45 176.20 236.99 171.00 C 238.20 170.37 238.67 169.06 239.15 167.88 Z" />
<path fill="#f2552c" d=" M 234.29 212.70 C 217.44 202.45 220.09 173.71 239.15 167.88 C 238.67 169.06 238.20 170.37 236.99 171.00 C 227.45 176.20 222.10 189.17 226.67 199.36 C 232.63 213.70 249.35 217.69 262.12 223.86 C 279.18 230.44 295.96 237.82 313.18 243.95 C 314.39 244.98 315.59 246.03 316.82 247.04 C 319.44 249.50 322.20 251.79 324.93 254.13 L 324.78 255.19 C 296.13 237.93 262.79 230.13 234.29 212.70 Z" />
<path fill="#9f502e" d=" M 227.91 198.05 C 224.20 188.02 229.73 176.75 238.82 171.83 C 239.36 171.90 240.43 172.05 240.97 172.12 C 229.13 178.87 224.66 196.58 236.27 205.75 C 255.35 217.98 277.84 222.84 299.03 230.12 C 302.30 232.22 304.87 235.45 307.70 238.17 C 308.08 238.62 308.83 239.51 309.20 239.95 C 292.91 235.00 277.33 227.59 261.30 221.72 C 249.01 216.07 233.26 211.94 227.91 198.05 Z" />
<path fill="#7e4f32" d=" M 240.97 172.12 L 241.64 171.67 C 242.97 174.19 244.18 177.05 247.10 178.07 C 264.72 195.02 282.32 212.29 299.03 230.12 C 277.84 222.84 255.35 217.98 236.27 205.75 C 224.66 196.58 229.13 178.87 240.97 172.12 Z" />
<path fill="#724f38" d=" M 161.95 224.88 C 161.50 209.91 159.21 194.35 163.83 179.77 C 160.54 199.77 163.06 220.63 172.06 238.96 C 172.70 241.92 176.53 245.33 172.97 248.05 C 153.10 266.78 131.90 284.47 111.87 303.07 C 114.05 310.08 120.72 314.64 123.98 321.15 C 119.36 317.14 115.12 312.72 111.06 308.17 C 107.21 300.44 99.16 295.51 94.98 287.91 C 94.64 286.51 95.22 285.17 96.12 284.13 C 117.99 264.45 141.27 245.77 161.95 224.88 Z" />
<path fill="#82502e" d=" M 171.06 228.82 C 174.82 234.98 178.65 241.10 182.95 246.91 C 190.13 260.21 205.48 265.33 214.96 276.28 C 192.92 297.14 169.83 317.04 147.21 337.31 C 145.83 341.99 151.45 344.67 152.12 349.03 C 146.76 344.47 141.40 339.61 137.17 334.00 C 134.64 328.98 130.54 324.94 127.89 320.00 C 148.78 301.19 169.83 282.48 190.83 263.77 C 186.51 251.25 173.49 242.46 171.06 228.82 Z" />
<path fill="#684b4a" d=" M 307.70 238.17 C 344.30 250.61 367.27 292.43 357.28 330.14 C 351.21 355.04 333.19 376.25 310.02 387.03 C 261.50 411.10 201.23 399.01 159.72 366.32 C 156.65 363.45 152.65 356.81 155.98 353.79 L 156.68 353.97 C 156.92 354.25 157.40 354.81 157.64 355.09 C 157.99 355.52 158.68 356.37 159.02 356.80 C 159.09 359.05 159.11 361.54 160.74 363.31 C 201.70 395.42 261.11 408.23 309.02 384.07 C 343.33 368.40 364.57 327.57 353.36 290.68 C 348.53 273.78 337.46 258.90 322.84 249.16 C 321.11 247.81 318.99 247.14 316.82 247.04 C 315.59 246.03 314.39 244.98 313.18 243.95 C 311.89 242.58 310.59 241.22 309.20 239.95 C 308.83 239.51 308.08 238.62 307.70 238.17 Z" />
<path fill="#f55421" d=" M 184.98 240.91 C 211.88 269.20 252.85 274.81 284.92 295.06 C 300.27 302.52 300.83 324.71 290.30 336.34 C 283.16 344.30 272.14 346.78 261.95 347.96 C 238.87 347.88 215.58 340.96 197.02 327.01 C 194.44 326.31 192.31 322.29 189.31 323.23 C 178.49 333.72 169.47 345.90 159.71 357.36 C 160.59 348.27 168.78 342.66 173.69 335.70 C 179.16 329.50 186.20 318.35 195.99 323.07 C 207.94 330.15 220.07 337.23 233.83 340.25 C 250.28 343.92 269.12 345.80 283.75 335.77 C 293.86 327.76 296.58 309.89 285.83 301.17 C 258.13 280.62 222.48 273.97 195.01 252.95 C 191.67 248.94 187.39 245.62 184.98 240.91 Z" />
<path fill="#8b502a" d=" M 182.95 246.91 C 190.73 253.94 198.57 261.07 207.87 266.08 C 218.72 273.59 231.15 278.53 241.86 286.28 C 243.26 289.94 239.34 292.00 237.23 294.24 C 227.89 302.25 219.03 310.81 209.59 318.70 C 200.52 320.05 189.95 311.03 182.00 319.04 C 172.27 329.22 160.78 339.06 154.86 352.13 C 153.73 351.33 152.54 350.40 152.12 349.03 C 151.45 344.67 145.83 341.99 147.21 337.31 C 169.83 317.04 192.92 297.14 214.96 276.28 C 205.48 265.33 190.13 260.21 182.95 246.91 Z" />
<path fill="#8e4b4a" d=" M 316.82 247.04 C 318.99 247.14 321.11 247.81 322.84 249.16 C 337.46 258.90 348.53 273.78 353.36 290.68 C 364.57 327.57 343.33 368.40 309.02 384.07 C 261.11 408.23 201.70 395.42 160.74 363.31 C 159.11 361.54 159.09 359.05 159.02 356.80 L 159.71 357.36 C 160.88 358.44 162.03 359.56 163.14 360.72 C 163.52 361.71 163.95 362.69 164.41 363.66 C 205.49 394.43 264.97 406.38 311.40 380.46 C 344.02 364.56 362.83 323.84 350.90 289.10 C 345.75 275.52 337.91 261.42 324.93 254.13 C 322.20 251.79 319.44 249.50 316.82 247.04 Z" />
<path fill="#c55022" d=" M 193.96 253.16 L 195.01 252.95 C 222.48 273.97 258.13 280.62 285.83 301.17 C 296.58 309.89 293.86 327.76 283.75 335.77 C 269.12 345.80 250.28 343.92 233.83 340.25 C 220.07 337.23 207.94 330.15 195.99 323.07 C 186.20 318.35 179.16 329.50 173.69 335.70 C 168.78 342.66 160.59 348.27 159.71 357.36 L 159.02 356.80 C 158.68 356.37 157.99 355.52 157.64 355.09 C 162.72 342.90 173.49 333.85 181.75 323.69 C 189.93 315.39 200.14 322.37 207.57 327.48 C 226.92 337.83 250.37 343.55 271.96 337.91 C 288.19 335.64 296.81 311.61 282.27 301.74 C 262.59 287.82 239.36 279.91 217.90 269.14 C 209.67 264.25 200.35 260.54 193.96 253.16 Z" />
<path fill="#bc4c48" d=" M 324.93 254.13 C 337.91 261.42 345.75 275.52 350.90 289.10 C 362.83 323.84 344.02 364.56 311.40 380.46 C 264.97 406.38 205.49 394.43 164.41 363.66 C 163.95 362.69 163.52 361.71 163.14 360.72 C 182.21 374.66 204.11 384.17 226.94 390.00 C 244.18 393.76 262.95 395.11 280.07 390.00 C 303.91 384.29 327.80 372.56 341.07 351.03 C 360.22 320.94 354.15 276.61 324.78 255.19 L 324.93 254.13 Z" />
<path fill="#975023" d=" M 207.87 266.08 C 211.28 267.15 214.52 268.68 217.80 270.13 C 235.23 279.85 253.95 287.24 270.64 298.29 C 272.82 300.09 275.71 302.15 273.86 305.71 C 263.90 314.80 253.86 323.84 243.60 332.59 C 232.91 335.84 221.85 331.05 212.03 326.90 C 204.19 324.18 197.95 316.70 189.01 317.97 C 181.73 319.62 177.39 326.41 172.37 331.37 C 166.98 338.72 159.17 344.94 156.68 353.97 L 155.98 353.79 C 155.70 353.37 155.14 352.55 154.86 352.13 C 160.78 339.06 172.27 329.22 182.00 319.04 C 189.95 311.03 200.52 320.05 209.59 318.70 C 219.03 310.81 227.89 302.25 237.23 294.24 C 239.34 292.00 243.26 289.94 241.86 286.28 C 231.15 278.53 218.72 273.59 207.87 266.08 Z" />
<path fill="#a4501e" d=" M 217.90 269.14 C 239.36 279.91 262.59 287.82 282.27 301.74 C 296.81 311.61 288.19 335.64 271.96 337.91 C 250.37 343.55 226.92 337.83 207.57 327.48 C 200.14 322.37 189.93 315.39 181.75 323.69 C 173.49 333.85 162.72 342.90 157.64 355.09 C 157.40 354.81 156.92 354.25 156.68 353.97 C 159.17 344.94 166.98 338.72 172.37 331.37 C 177.39 326.41 181.73 319.62 189.01 317.97 C 197.95 316.70 204.19 324.18 212.03 326.90 C 221.85 331.05 232.91 335.84 243.60 332.59 C 253.86 323.84 263.90 314.80 273.86 305.71 C 275.71 302.15 272.82 300.09 270.64 298.29 C 253.95 287.24 235.23 279.85 217.80 270.13 L 217.90 269.14 Z" />
<path fill="#e3563e" d=" M 226.94 390.00 C 244.56 392.95 262.39 392.02 280.07 390.00 C 262.95 395.11 244.18 393.76 226.94 390.00 Z" />
</svg>
