<?xml version="1.0" encoding="UTF-8" ?>
<!DOCTYPE svg PUBLIC "-//W3C//DTD SVG 1.1//EN" "http://www.w3.org/Graphics/SVG/1.1/DTD/svg11.dtd">
<svg width="512pt" height="512pt" viewBox="0 0 512 512" version="1.1" xmlns="http://www.w3.org/2000/svg">
<path fill="#fcfcfc" d=" M 0.00 0.00 L 512.00 0.00 L 512.00 512.00 L 0.00 512.00 L 0.00 0.00 Z" />
<path fill="#81999f" d=" M 169.14 62.26 C 168.99 54.69 171.13 43.58 180.00 41.97 C 188.59 44.79 194.51 52.81 200.31 59.47 C 190.05 58.76 177.89 55.27 169.14 62.26 Z" />
<path fill="#86aeb9" d=" M 169.14 62.26 C 177.89 55.27 190.05 58.76 200.31 59.47 C 206.20 63.61 211.62 69.29 215.99 75.16 C 209.21 70.53 201.77 69.14 194.04 72.99 C 188.67 68.74 184.17 62.92 177.88 60.02 C 173.48 57.73 170.20 70.15 168.86 65.15 C 168.93 64.43 169.07 62.99 169.14 62.26 Z" />
<path fill="#a4c0c9" d=" M 168.86 65.15 C 170.20 70.15 173.48 57.73 177.88 60.02 C 184.17 62.92 188.67 68.74 194.04 72.99 C 194.32 73.44 194.89 74.33 195.17 74.78 C 187.02 78.55 177.56 76.01 169.14 79.02 C 171.10 75.34 166.52 67.10 168.86 65.15 Z" />
<path fill="#84c2d2" d=" M 194.04 72.99 C 201.77 69.14 209.21 70.53 215.99 75.16 C 228.70 85.34 239.76 97.65 251.58 108.94 C 253.47 104.22 252.90 113.03 256.03 114.01 C 252.56 112.31 249.91 109.47 246.99 107.01 C 240.18 99.42 232.11 93.00 223.89 87.04 C 220.00 87.21 215.74 87.49 212.74 90.26 C 209.89 88.93 207.67 86.67 205.21 84.77 C 201.89 81.40 198.55 78.07 195.17 74.78 C 194.89 74.33 194.32 73.44 194.04 72.99 Z" />
<path fill="#9acddb" d=" M 169.14 79.02 C 177.56 76.01 187.02 78.55 195.17 74.78 C 198.55 78.07 201.89 81.40 205.21 84.77 C 205.58 86.80 205.96 88.84 206.02 90.91 C 193.82 89.82 181.32 89.99 169.22 91.91 C 164.92 88.68 170.30 83.74 169.14 79.02 Z" />
<path fill="#89d2e5" d=" M 205.21 84.77 C 207.67 86.67 209.89 88.93 212.74 90.26 C 215.30 94.40 218.43 98.25 220.12 102.87 C 203.76 108.43 185.88 102.91 169.01 104.90 C 166.74 102.82 169.40 96.01 169.22 91.91 C 181.32 89.99 193.82 89.82 206.02 90.91 C 205.96 88.84 205.58 86.80 205.21 84.77 Z" />
<path fill="#78d2eb" d=" M 212.74 90.26 C 215.74 87.49 220.00 87.21 223.89 87.04 C 232.11 93.00 240.18 99.42 246.99 107.01 C 240.98 104.33 234.70 98.33 227.72 100.69 C 222.46 104.78 233.80 109.95 231.34 114.26 C 223.35 114.17 215.85 118.07 207.55 116.51 C 194.66 120.81 181.47 111.63 169.13 118.20 C 168.97 113.77 168.82 109.33 169.01 104.90 C 185.88 102.91 203.76 108.43 220.12 102.87 C 218.43 98.25 215.30 94.40 212.74 90.26 Z" />
<path fill="#6cd4ef" d=" M 227.72 100.69 C 234.70 98.33 240.98 104.33 246.99 107.01 C 249.91 109.47 252.56 112.31 256.03 114.01 C 260.72 116.79 264.00 120.41 267.17 124.80 C 271.60 123.16 271.82 130.08 274.70 132.24 C 274.81 132.68 275.03 133.54 275.14 133.98 C 265.63 126.93 257.37 115.73 244.40 116.09 C 244.00 119.78 244.07 123.92 242.21 127.14 C 229.09 132.20 215.21 126.18 201.57 128.48 C 190.98 130.06 178.27 125.26 169.02 132.10 C 168.99 128.72 169.03 125.36 168.98 121.99 C 168.95 120.72 169.00 119.46 169.13 118.20 C 181.47 111.63 194.66 120.81 207.55 116.51 C 215.85 118.07 223.35 114.17 231.34 114.26 C 233.80 109.95 222.46 104.78 227.72 100.69 Z" />
<path fill="#60d6f7" d=" M 244.40 116.09 C 257.37 115.73 265.63 126.93 275.14 133.98 C 277.59 136.20 280.00 138.48 282.16 140.99 C 278.63 141.05 276.17 138.26 273.27 136.71 C 270.28 137.53 267.24 137.46 264.19 137.07 C 262.03 139.53 264.20 143.58 261.79 145.85 C 247.06 145.44 231.75 144.17 217.21 146.05 C 219.88 153.10 225.63 158.31 229.00 164.95 C 219.55 165.84 209.01 165.96 199.27 164.87 C 195.18 158.88 197.19 150.81 194.78 144.13 C 186.32 145.98 174.81 141.09 169.06 149.16 C 169.02 143.47 168.97 137.78 169.02 132.10 C 178.27 125.26 190.98 130.06 201.57 128.48 C 215.21 126.18 229.09 132.20 242.21 127.14 C 244.07 123.92 244.00 119.78 244.40 116.09 Z" />
<path fill="#bed6e2" d=" M 166.04 135.85 C 168.87 131.99 166.32 124.55 168.98 121.99 C 169.03 125.36 168.99 128.72 169.02 132.10 C 168.97 137.78 169.02 143.47 169.06 149.16 C 169.00 154.10 168.97 159.05 169.01 164.00 C 168.98 168.34 168.98 172.70 169.00 177.05 C 168.96 180.72 169.00 184.42 169.02 188.11 C 168.98 192.39 168.95 196.68 169.00 200.97 C 168.99 202.27 169.01 203.57 169.05 204.87 C 169.06 205.34 169.08 206.29 169.09 206.76 C 169.00 228.26 168.83 249.76 169.17 271.25 C 168.91 282.10 168.92 292.95 169.10 303.81 C 168.94 320.54 169.01 337.27 168.98 354.00 C 168.97 361.25 169.00 368.51 169.13 375.78 C 169.12 376.31 169.09 377.38 169.07 377.91 L 168.03 378.05 C 168.48 331.04 167.00 283.97 168.03 237.17 C 165.10 239.23 165.46 235.11 167.76 234.47 C 167.44 222.30 167.44 210.33 168.03 198.17 C 165.10 200.23 165.46 196.11 167.76 195.47 C 167.12 183.33 167.57 171.35 168.03 159.18 C 165.95 160.42 165.58 159.21 165.95 157.17 C 170.17 159.64 167.47 153.38 167.28 150.86 C 166.67 145.89 170.45 139.04 166.04 135.85 Z" />
<path fill="#97c5d4" d=" M 274.70 132.24 C 279.04 135.84 285.64 139.58 287.61 145.39 C 285.72 144.01 283.94 142.50 282.16 140.99 C 280.00 138.48 277.59 136.20 275.14 133.98 C 275.03 133.54 274.81 132.68 274.70 132.24 Z" />
<path fill="#4fd3fb" d=" M 273.27 136.71 C 276.17 138.26 278.63 141.05 282.16 140.99 C 283.94 142.50 285.72 144.01 287.61 145.39 C 291.11 152.21 299.19 155.37 303.14 161.95 C 297.58 155.91 289.87 155.60 282.36 157.29 C 281.35 162.26 278.06 164.21 272.88 163.18 C 277.10 171.34 284.27 177.90 287.09 186.87 C 280.17 185.82 273.18 187.41 266.24 186.85 C 260.02 180.67 262.45 170.70 258.73 163.24 C 251.34 161.89 243.71 163.28 236.25 162.19 C 231.84 167.98 242.25 172.56 242.10 178.92 C 229.77 180.41 217.36 177.95 205.28 179.65 C 195.12 180.84 197.98 168.18 193.78 163.08 C 185.56 164.98 177.04 161.41 169.01 164.00 C 168.97 159.05 169.00 154.10 169.06 149.16 C 174.81 141.09 186.32 145.98 194.78 144.13 C 197.19 150.81 195.18 158.88 199.27 164.87 C 209.01 165.96 219.55 165.84 229.00 164.95 C 225.63 158.31 219.88 153.10 217.21 146.05 C 231.75 144.17 247.06 145.44 261.79 145.85 C 264.20 143.58 262.03 139.53 264.19 137.07 C 267.24 137.46 270.28 137.53 273.27 136.71 Z" />
<path fill="#8dc4d6" d=" M 287.61 145.39 C 296.38 152.17 305.08 160.09 311.84 169.22 C 308.57 167.28 305.66 164.79 303.14 161.95 C 299.19 155.37 291.11 152.21 287.61 145.39 Z" />
<path fill="#3ed1fd" d=" M 282.36 157.29 C 289.87 155.60 297.58 155.91 303.14 161.95 C 305.66 164.79 308.57 167.28 311.84 169.22 C 312.89 170.08 314.59 170.54 314.94 172.01 C 315.26 173.03 315.59 174.06 315.95 175.08 C 311.92 172.34 307.30 171.02 302.45 170.54 C 299.13 165.58 292.17 169.47 291.59 174.62 C 290.18 174.77 287.37 175.08 285.97 175.23 C 286.73 183.91 296.76 188.55 298.09 196.86 C 292.83 198.25 287.54 200.08 282.03 199.96 C 278.10 199.02 274.00 195.36 270.05 198.22 C 270.36 202.79 273.59 206.55 274.90 210.87 C 271.34 210.77 267.77 210.87 264.22 210.77 C 257.73 200.39 264.04 188.07 259.68 177.33 C 258.25 171.74 251.44 175.73 247.30 174.26 C 243.76 179.35 255.95 185.64 252.32 191.24 C 236.30 194.43 219.56 191.12 203.32 192.64 C 193.70 191.49 200.03 177.04 191.63 174.31 C 184.22 174.60 175.11 171.39 169.00 177.05 C 168.98 172.70 168.98 168.34 169.01 164.00 C 177.04 161.41 185.56 164.98 193.78 163.08 C 197.98 168.18 195.12 180.84 205.28 179.65 C 217.36 177.95 229.77 180.41 242.10 178.92 C 242.25 172.56 231.84 167.98 236.25 162.19 C 243.71 163.28 251.34 161.89 258.73 163.24 C 262.45 170.70 260.02 180.67 266.24 186.85 C 273.18 187.41 280.17 185.82 287.09 186.87 C 284.27 177.90 277.10 171.34 272.88 163.18 C 278.06 164.21 281.35 162.26 282.36 157.29 Z" />
<path fill="#2ecffe" d=" M 291.59 174.62 C 292.17 169.47 299.13 165.58 302.45 170.54 C 307.30 171.02 311.92 172.34 315.95 175.08 C 317.22 175.75 318.52 176.39 319.79 177.08 C 320.74 178.79 321.83 180.43 322.99 182.01 C 313.78 183.66 303.94 180.39 295.01 184.01 C 298.16 191.71 304.28 197.59 308.04 204.94 C 298.63 205.74 289.10 204.96 280.04 208.27 C 280.25 213.11 284.86 216.88 284.02 221.92 C 277.39 221.57 270.62 220.89 264.22 222.92 C 260.08 217.80 262.42 209.53 258.69 204.30 C 239.76 202.40 220.39 203.83 201.34 203.65 C 192.66 200.64 199.33 183.93 188.01 186.04 C 181.87 188.09 173.69 182.19 169.02 188.11 C 169.00 184.42 168.96 180.72 169.00 177.05 C 175.11 171.39 184.22 174.60 191.63 174.31 C 200.03 177.04 193.70 191.49 203.32 192.64 C 219.56 191.12 236.30 194.43 252.32 191.24 C 255.95 185.64 243.76 179.35 247.30 174.26 C 251.44 175.73 258.25 171.74 259.68 177.33 C 264.04 188.07 257.73 200.39 264.22 210.77 C 267.77 210.87 271.34 210.77 274.90 210.87 C 273.59 206.55 270.36 202.79 270.05 198.22 C 274.00 195.36 278.10 199.02 282.03 199.96 C 287.54 200.08 292.83 198.25 298.09 196.86 C 296.76 188.55 286.73 183.91 285.97 175.23 C 287.37 175.08 290.18 174.77 291.59 174.62 Z" />
<path fill="#90c0d4" d=" M 314.94 172.01 C 316.68 173.51 320.56 174.15 319.79 177.08 C 318.52 176.39 317.22 175.75 315.95 175.08 C 315.59 174.06 315.26 173.03 314.94 172.01 Z" />
<path fill="#7fbdd3" d=" M 319.79 177.08 C 322.06 178.75 325.20 180.18 326.12 182.98 C 325.52 182.80 324.32 182.43 323.72 182.25 L 322.99 182.01 C 321.83 180.43 320.74 178.79 319.79 177.08 Z" />
<path fill="#1fc9fe" d=" M 295.01 184.01 C 303.94 180.39 313.78 183.66 322.99 182.01 L 323.72 182.25 C 326.06 185.57 329.11 188.75 329.98 192.83 C 322.01 194.51 312.01 193.18 305.09 197.16 C 308.80 203.99 314.65 209.52 319.87 215.21 C 319.99 216.46 320.07 217.72 320.09 218.98 C 310.98 221.55 301.13 219.21 292.24 221.26 C 292.86 226.86 298.90 231.39 302.15 236.05 C 300.67 238.35 298.30 240.67 295.00 239.02 C 285.03 239.21 274.86 239.75 265.01 239.04 C 261.57 234.90 262.83 227.41 259.22 222.82 C 251.11 219.09 241.58 220.44 233.00 221.62 C 221.82 220.01 210.43 219.83 199.20 220.92 C 195.28 215.23 199.70 202.39 190.21 201.50 C 183.17 203.14 176.03 202.00 169.00 200.97 C 168.95 196.68 168.98 192.39 169.02 188.11 C 173.69 182.19 181.87 188.09 188.01 186.04 C 199.33 183.93 192.66 200.64 201.34 203.65 C 220.39 203.83 239.76 202.40 258.69 204.30 C 262.42 209.53 260.08 217.80 264.22 222.92 C 270.62 220.89 277.39 221.57 284.02 221.92 C 284.86 216.88 280.25 213.11 280.04 208.27 C 289.10 204.96 298.63 205.74 308.04 204.94 C 304.28 197.59 298.16 191.71 295.01 184.01 Z" />
<path fill="#23b7f3" d=" M 323.72 182.25 C 324.32 182.43 325.52 182.80 326.12 182.98 C 328.79 184.86 331.29 187.36 333.13 190.13 C 333.63 191.39 334.60 192.37 335.88 192.86 C 336.99 193.49 338.37 194.27 338.59 195.66 C 338.80 197.83 341.82 199.50 339.79 201.69 C 332.81 206.25 323.16 202.72 315.96 206.17 C 316.50 209.49 319.78 211.75 319.87 215.21 C 314.65 209.52 308.80 203.99 305.09 197.16 C 312.01 193.18 322.01 194.51 329.98 192.83 C 329.11 188.75 326.06 185.57 323.72 182.25 Z" />
<path fill="#aebfd1" d=" M 333.13 190.13 C 334.81 188.62 337.37 191.17 335.88 192.86 C 334.60 192.37 333.63 191.39 333.13 190.13 Z" />
<path fill="#1ea7e7" d=" M 339.79 201.69 C 341.82 199.50 338.80 197.83 338.59 195.66 C 343.75 198.90 347.34 204.09 348.84 209.96 C 342.77 219.70 329.04 216.41 320.16 221.03 C 320.14 220.52 320.11 219.49 320.09 218.98 C 320.07 217.72 319.99 216.46 319.87 215.21 C 319.78 211.75 316.50 209.49 315.96 206.17 C 323.16 202.72 332.81 206.25 339.79 201.69 Z" />
<path fill="#16bbf9" d=" M 169.00 200.97 C 176.03 202.00 183.17 203.14 190.21 201.50 C 199.70 202.39 195.28 215.23 199.20 220.92 C 210.43 219.83 221.82 220.01 233.00 221.62 C 241.58 220.44 251.11 219.09 259.22 222.82 C 262.83 227.41 261.57 234.90 265.01 239.04 C 274.86 239.75 285.03 239.21 295.00 239.02 C 298.30 240.67 300.67 238.35 302.15 236.05 C 298.90 231.39 292.86 226.86 292.24 221.26 C 301.13 219.21 310.98 221.55 320.09 218.98 C 320.11 219.49 320.14 220.52 320.16 221.03 C 318.72 223.23 316.78 225.02 314.87 226.81 C 310.82 228.63 306.65 230.17 302.33 231.21 C 303.13 233.81 305.66 237.33 302.28 239.30 C 293.99 247.60 283.92 257.68 270.96 254.28 C 256.35 257.32 265.77 237.42 258.88 231.18 C 254.13 233.45 248.97 234.53 243.67 233.44 C 230.88 233.38 218.10 233.38 205.32 233.62 C 192.37 235.08 199.41 217.89 193.69 211.26 C 185.18 209.53 175.09 212.76 169.05 204.87 C 169.01 203.57 168.99 202.27 169.00 200.97 Z" />
<path fill="#15aaee" d=" M 169.05 204.87 C 175.09 212.76 185.18 209.53 193.69 211.26 C 199.41 217.89 192.37 235.08 205.32 233.62 C 218.10 233.38 230.88 233.38 243.67 233.44 C 248.97 234.53 254.13 233.45 258.88 231.18 C 265.77 237.42 256.35 257.32 270.96 254.28 C 283.92 257.68 293.99 247.60 302.28 239.30 C 305.66 237.33 303.13 233.81 302.33 231.21 C 306.65 230.17 310.82 228.63 314.87 226.81 C 312.04 229.71 308.86 232.27 306.24 235.38 C 303.30 239.50 311.14 241.89 308.34 245.28 C 294.70 245.00 285.20 258.24 275.08 266.02 C 271.34 267.69 268.27 271.25 264.17 271.94 C 260.91 261.70 263.02 250.30 258.58 240.37 C 258.22 239.09 257.39 238.67 256.11 239.12 C 248.97 241.36 243.25 247.19 236.02 248.92 C 226.73 245.31 216.84 251.28 207.84 245.15 C 203.91 241.42 200.08 237.59 196.21 233.81 C 187.22 224.74 178.31 215.59 169.09 206.76 C 169.08 206.29 169.06 205.34 169.05 204.87 Z" />
<path fill="#0e459e" d=" M 169.09 206.76 C 178.31 215.59 187.22 224.74 196.21 233.81 C 196.09 243.48 196.96 253.17 196.03 262.76 C 192.07 263.01 188.49 264.61 184.71 265.58 C 180.57 265.13 176.44 261.65 172.41 264.35 C 171.20 266.59 170.32 268.99 169.17 271.25 C 168.83 249.76 169.00 228.26 169.09 206.76 Z" />
<path fill="#1a93da" d=" M 320.16 221.03 C 329.04 216.41 342.77 219.70 348.84 209.96 C 349.58 214.24 351.06 219.14 349.19 223.12 C 339.68 234.60 323.53 228.97 311.43 234.55 C 309.78 235.32 306.94 236.35 308.25 238.70 C 312.15 245.07 319.03 249.16 322.37 255.95 C 321.09 258.22 318.85 260.82 316.32 261.55 C 302.75 266.13 286.63 259.51 274.16 268.28 C 274.39 267.71 274.85 266.59 275.08 266.02 C 285.20 258.24 294.70 245.00 308.34 245.28 C 311.14 241.89 303.30 239.50 306.24 235.38 C 308.86 232.27 312.04 229.71 314.87 226.81 C 316.78 225.02 318.72 223.23 320.16 221.03 Z" />
<path fill="#1b7fc8" d=" M 311.43 234.55 C 323.53 228.97 339.68 234.60 349.19 223.12 C 346.93 237.77 331.15 245.30 322.37 255.95 C 319.03 249.16 312.15 245.07 308.25 238.70 C 306.94 236.35 309.78 235.32 311.43 234.55 Z" />
<path fill="#0878c8" d=" M 196.21 233.81 C 200.08 237.59 203.91 241.42 207.84 245.15 C 211.78 249.16 215.53 253.41 219.86 257.03 C 222.38 259.53 224.37 262.96 227.92 264.13 L 227.78 264.91 C 223.47 264.22 221.77 268.67 218.99 271.00 C 213.22 277.90 205.68 283.15 201.07 291.04 C 200.41 292.70 198.01 293.99 197.19 291.70 C 196.63 283.39 197.35 275.06 196.80 266.76 C 196.75 265.39 196.37 264.07 196.03 262.76 C 196.96 253.17 196.09 243.48 196.21 233.81 Z" />
<path fill="#159de5" d=" M 236.02 248.92 C 243.25 247.19 248.97 241.36 256.11 239.12 C 257.39 238.67 258.22 239.09 258.58 240.37 C 263.02 250.30 260.91 261.70 264.17 271.94 C 268.27 271.25 271.34 267.69 275.08 266.02 C 274.85 266.59 274.39 267.71 274.16 268.28 C 271.39 270.92 264.44 279.14 261.71 272.30 C 260.68 266.07 262.52 257.99 257.71 253.30 C 248.11 249.10 237.65 253.00 229.64 258.71 C 226.47 261.70 223.18 257.63 219.86 257.03 C 215.53 253.41 211.78 249.16 207.84 245.15 C 216.84 251.28 226.73 245.31 236.02 248.92 Z" />
<path fill="#168fd9" d=" M 229.64 258.71 C 237.65 253.00 248.11 249.10 257.71 253.30 C 262.52 257.99 260.68 266.07 261.71 272.30 C 259.03 269.55 259.99 263.25 254.39 264.52 C 245.59 264.42 236.71 265.31 227.92 264.13 C 224.37 262.96 222.38 259.53 219.86 257.03 C 223.18 257.63 226.47 261.70 229.64 258.71 Z" />
<path fill="#1281cf" d=" M 274.16 268.28 C 286.63 259.51 302.75 266.13 316.32 261.55 C 315.55 263.27 314.42 264.80 312.89 265.91 C 309.61 268.72 306.73 271.96 303.46 274.79 C 300.47 274.62 298.32 277.47 295.66 278.46 C 279.79 278.51 263.95 278.33 248.08 278.64 C 239.63 277.21 234.23 269.88 227.78 264.91 L 227.92 264.13 C 236.71 265.31 245.59 264.42 254.39 264.52 C 259.99 263.25 259.03 269.55 261.71 272.30 C 264.44 279.14 271.39 270.92 274.16 268.28 Z" />
<path fill="#0a53a9" d=" M 172.41 264.35 C 176.44 261.65 180.57 265.13 184.71 265.58 C 188.49 264.61 192.07 263.01 196.03 262.76 C 196.37 264.07 196.75 265.39 196.80 266.76 C 194.61 278.54 197.03 290.57 196.36 302.30 C 196.02 300.78 195.34 297.74 195.00 296.22 C 187.93 299.82 184.54 310.38 176.11 310.97 C 172.47 310.25 170.75 306.73 169.10 303.81 C 168.92 292.95 168.91 282.10 169.17 271.25 C 170.32 268.99 171.20 266.59 172.41 264.35 Z" />
<path fill="#0c73bc" d=" M 218.99 271.00 C 221.77 268.67 223.47 264.22 227.78 264.91 C 234.23 269.88 239.63 277.21 248.08 278.64 C 263.95 278.33 279.79 278.51 295.66 278.46 C 298.32 277.47 300.47 274.62 303.46 274.79 C 279.69 299.57 254.71 323.13 230.12 347.07 C 223.49 351.97 215.81 355.93 210.57 362.44 C 208.77 361.63 206.95 360.78 204.91 360.93 C 206.33 362.75 208.04 368.48 203.97 366.07 C 198.43 364.90 198.07 359.06 196.16 354.73 C 197.14 337.26 195.81 319.80 196.36 302.30 C 197.03 290.57 194.61 278.54 196.80 266.76 C 197.35 275.06 196.63 283.39 197.19 291.70 C 198.01 293.99 200.41 292.70 201.07 291.04 C 205.68 283.15 213.22 277.90 218.99 271.00 Z" />
<path fill="#eaeded" d=" M 303.46 274.79 C 306.73 271.96 309.61 268.72 312.89 265.91 C 314.53 270.33 309.84 271.88 308.96 275.67 C 306.15 274.27 305.96 277.74 305.70 279.67 C 301.63 279.17 304.37 284.84 300.28 284.32 C 300.62 286.28 298.25 291.38 297.70 286.99 C 295.94 288.59 296.32 296.91 294.81 289.88 C 289.35 291.23 296.15 298.57 290.25 298.28 C 290.13 300.41 289.93 302.45 287.30 302.33 C 286.98 304.17 286.89 307.82 284.13 306.31 C 284.12 308.30 283.89 311.62 281.07 310.37 C 278.11 315.81 275.94 322.18 270.38 324.08 C 273.18 329.73 263.19 325.24 266.95 332.70 C 262.71 330.69 265.49 338.21 261.24 337.37 C 264.56 345.95 259.37 340.00 257.71 341.74 C 256.25 347.47 251.59 348.90 249.92 354.61 C 245.94 352.16 247.32 362.69 245.91 357.02 C 244.28 352.08 239.48 362.31 239.95 357.01 C 239.33 353.16 234.71 360.38 234.67 356.16 C 230.69 357.11 227.14 354.26 223.22 356.18 C 223.72 359.98 221.88 360.58 218.83 358.72 C 222.63 354.86 226.51 351.09 230.12 347.07 C 254.71 323.13 279.69 299.57 303.46 274.79 Z" />
<path fill="#064f95" d=" M 195.00 296.22 C 195.34 297.74 196.02 300.78 196.36 302.30 C 195.81 319.80 197.14 337.26 196.16 354.73 C 196.06 356.55 195.94 358.37 195.89 360.20 C 191.49 349.99 176.65 360.21 168.98 354.00 C 169.01 337.27 168.94 320.54 169.10 303.81 C 170.75 306.73 172.47 310.25 176.11 310.97 C 184.54 310.38 187.93 299.82 195.00 296.22 Z" />
<path fill="#2078aa" d=" M 210.57 362.44 C 215.81 355.93 223.49 351.97 230.12 347.07 C 226.51 351.09 222.63 354.86 218.83 358.72 C 211.42 365.67 204.76 373.43 197.08 380.07 C 197.16 373.42 196.84 366.78 195.89 360.20 C 195.94 358.37 196.06 356.55 196.16 354.73 C 198.07 359.06 198.43 364.90 203.97 366.07 C 208.04 368.48 206.33 362.75 204.91 360.93 C 206.95 360.78 208.77 361.63 210.57 362.44 Z" />
<path fill="#155281" d=" M 168.98 354.00 C 176.65 360.21 191.49 349.99 195.89 360.20 C 196.84 366.78 197.16 373.42 197.08 380.07 C 196.84 380.30 196.35 380.77 196.11 381.00 C 187.90 380.49 171.96 387.69 169.13 375.78 C 169.00 368.51 168.97 361.25 168.98 354.00 Z" />
<path fill="#2e5174" d=" M 169.13 375.78 C 171.96 387.69 187.90 380.49 196.11 381.00 C 191.13 385.58 187.36 393.17 179.99 394.01 C 172.53 393.10 169.60 384.46 169.07 377.91 C 169.09 377.38 169.12 376.31 169.13 375.78 Z" />
<path fill="#b6b6b6" d=" M 284.11 426.05 C 284.52 428.11 292.17 423.97 291.94 426.96 C 290.22 426.99 286.78 427.06 285.07 427.09 C 284.84 437.72 285.04 448.35 285.01 458.99 C 283.17 449.95 283.58 436.75 284.11 426.05 Z" />
<path fill="#343434" d=" M 199.96 426.99 C 200.44 427.01 201.40 427.06 201.88 427.09 C 203.81 435.40 205.67 443.74 207.27 452.12 C 212.88 445.59 209.05 431.40 216.05 426.98 C 214.14 437.15 211.55 447.23 209.39 457.36 C 209.49 459.44 206.80 459.51 206.30 457.70 C 204.69 447.37 201.16 437.36 199.96 426.99 Z" />
<path fill="#232323" d=" M 285.07 427.09 C 286.78 427.06 290.22 426.99 291.94 426.96 C 295.03 427.43 295.70 430.56 296.03 433.19 C 296.04 434.85 296.06 438.16 296.07 439.82 C 296.65 442.55 294.46 444.32 292.60 445.86 C 291.26 446.09 288.59 446.53 287.26 446.75 C 284.92 449.48 290.40 459.58 285.01 458.99 C 285.04 448.35 284.84 437.72 285.07 427.09 Z" />
<path fill="#ecedec" d=" M 287.05 430.00 C 289.97 428.36 294.36 430.96 294.07 434.19 C 293.98 435.72 293.97 437.26 294.06 438.81 C 293.83 440.22 293.55 442.99 291.76 443.04 C 290.25 442.96 288.74 442.95 287.23 443.05 C 286.92 438.70 286.82 434.34 287.05 430.00 Z" />
<path fill="#919394" d=" M 296.03 433.19 C 297.93 434.02 297.90 438.94 296.07 439.82 C 296.06 438.16 296.04 434.85 296.03 433.19 Z" />
<path fill="#d0d0d0" d=" M 270.94 436.23 C 272.15 432.82 279.48 433.82 278.01 438.00 C 274.66 439.51 274.26 434.94 271.73 437.22 C 271.53 436.97 271.14 436.48 270.94 436.23 Z" />
<path fill="#777879" d=" M 294.07 434.19 C 295.86 434.32 295.86 438.68 294.06 438.81 C 293.97 437.26 293.98 435.72 294.07 434.19 Z" />
<path fill="#2d2e2e" d=" M 214.98 442.97 C 214.19 436.03 224.13 431.73 227.06 438.90 C 227.57 440.23 228.08 441.57 228.55 442.93 C 227.58 444.37 227.05 446.40 228.23 447.91 C 224.16 447.95 220.09 448.01 216.03 448.08 C 216.05 451.80 219.35 459.75 223.75 455.76 C 225.30 454.68 226.87 449.99 228.19 453.50 C 226.24 461.73 215.06 461.72 215.00 452.03 C 214.96 448.97 214.99 445.99 214.98 442.97 Z" />
<path fill="#323333" d=" M 230.88 440.12 C 231.96 434.48 238.67 433.50 241.79 438.04 C 242.01 436.48 241.73 434.31 244.02 434.90 L 243.93 435.82 C 243.06 437.29 242.12 438.71 241.12 440.10 C 231.83 432.45 228.72 451.11 235.05 456.07 C 235.72 457.74 238.21 457.75 239.01 456.18 C 239.97 455.05 240.91 453.91 241.88 452.80 C 242.44 454.99 243.10 457.16 243.77 459.33 C 243.85 462.83 242.27 467.71 238.77 469.04 C 237.59 468.97 236.41 468.97 235.23 469.04 C 232.47 468.22 230.79 464.75 230.96 461.94 C 233.93 462.14 234.21 466.29 237.00 467.09 C 240.91 465.02 243.01 460.29 242.03 455.90 C 239.49 461.53 232.93 460.27 231.00 454.98 C 230.15 450.05 229.91 445.04 230.88 440.12 Z" />
<path fill="#cccecf" d=" M 244.02 434.90 C 243.87 440.62 248.46 452.32 243.86 458.26 C 244.06 450.78 243.95 443.29 243.93 435.82 L 244.02 434.90 Z" />
<path fill="#2e2f2f" d=" M 246.94 444.19 C 246.12 438.31 253.21 431.07 257.97 437.31 C 258.50 437.86 259.03 438.43 259.56 439.00 C 259.45 439.55 259.22 440.65 259.11 441.20 C 255.34 435.42 249.03 438.86 248.40 444.83 C 248.39 446.17 248.39 448.84 248.38 450.17 C 249.23 452.37 250.13 454.64 251.86 456.31 C 252.78 457.87 255.15 457.58 255.87 455.99 C 256.87 454.86 257.91 453.75 258.95 452.66 C 259.13 453.26 259.48 454.44 259.66 455.03 C 259.08 455.60 258.56 456.22 258.11 456.90 C 254.02 463.97 246.46 456.77 246.96 450.81 C 246.96 449.15 246.94 445.84 246.94 444.19 Z" />
<path fill="#848585" d=" M 257.97 437.31 C 258.58 433.69 266.27 433.78 262.01 439.99 C 260.86 445.67 264.08 454.96 260.92 459.11 C 260.92 451.31 261.24 443.53 260.93 435.75 C 260.24 436.72 259.78 437.80 259.56 439.00 C 259.03 438.43 258.50 437.86 257.97 437.31 Z" />
<path fill="#333434" d=" M 264.96 438.24 C 264.94 434.88 268.93 433.72 270.94 436.23 C 271.14 436.48 271.53 436.97 271.73 437.22 C 273.14 439.49 272.80 443.01 270.44 439.61 C 267.65 434.59 263.36 442.45 267.74 444.27 C 273.61 446.73 275.12 455.07 270.31 459.32 C 266.41 463.02 261.09 451.80 265.70 452.16 C 265.46 455.60 269.58 459.69 270.67 454.62 C 274.92 448.09 264.05 448.96 264.92 443.82 C 265.03 441.96 265.04 440.10 264.96 438.24 Z" />
<path fill="#2c2c2d" d=" M 298.07 435.02 C 300.39 434.22 299.95 436.56 300.19 438.09 C 301.31 436.67 302.04 434.19 304.33 435.32 C 303.78 436.56 303.06 437.71 302.22 438.77 C 301.13 439.82 300.84 441.29 300.65 442.73 C 299.83 448.15 300.03 453.65 299.98 459.13 C 299.50 459.09 298.53 459.00 298.04 458.95 C 298.02 450.97 297.78 442.99 298.07 435.02 Z" />
<path fill="#bdbebe" d=" M 304.33 435.32 C 306.47 436.13 304.51 440.51 302.22 438.77 C 303.06 437.71 303.78 436.56 304.33 435.32 Z" />
<path fill="#353636" d=" M 309.29 435.18 C 315.01 433.13 318.06 439.63 318.06 444.18 C 318.06 445.84 318.06 449.16 318.06 450.82 C 318.11 454.78 316.14 459.09 311.93 460.00 C 308.15 459.91 305.55 456.43 305.07 452.91 C 304.99 449.56 305.00 446.30 304.97 442.98 C 304.64 439.73 307.04 437.16 309.29 435.18 Z" />
<path fill="#121516" d=" M 241.12 440.10 C 242.12 438.71 243.06 437.29 243.93 435.82 C 243.95 443.29 244.06 450.78 243.86 458.26 L 243.77 459.33 C 243.10 457.16 242.44 454.99 241.88 452.80 C 241.96 448.53 241.65 444.31 241.12 440.10 Z" />
<path fill="#0b0c0c" d=" M 259.56 439.00 C 259.78 437.80 260.24 436.72 260.93 435.75 C 261.24 443.53 260.92 451.31 260.92 459.11 L 260.14 458.63 C 260.20 457.39 260.04 456.19 259.66 455.03 C 259.48 454.44 259.13 453.26 258.95 452.66 C 259.02 452.27 259.16 451.47 259.23 451.07 C 260.36 448.65 261.89 445.32 258.93 443.93 C 258.97 443.25 259.06 441.88 259.11 441.20 C 259.22 440.65 259.45 439.55 259.56 439.00 Z" />
<path fill="#eff0f0" d=" M 216.62 443.23 C 216.87 436.42 226.13 436.41 226.38 443.23 C 225.28 446.25 217.88 446.14 216.62 443.23 Z" />
<path fill="#f0f0f0" d=" M 235.05 456.07 C 228.72 451.11 231.83 432.45 241.12 440.10 C 241.65 444.31 241.96 448.53 241.88 452.80 C 240.91 453.91 239.97 455.05 239.01 456.18 C 237.70 455.84 236.37 455.80 235.05 456.07 Z" />
<path fill="#f0f0f0" d=" M 248.40 444.83 C 249.03 438.86 255.34 435.42 259.11 441.20 C 259.06 441.88 258.97 443.25 258.93 443.93 C 259.00 445.71 259.16 449.29 259.23 451.07 C 259.16 451.47 259.02 452.27 258.95 452.66 C 257.91 453.75 256.87 454.86 255.87 455.99 C 254.50 455.76 253.17 455.87 251.86 456.31 C 250.13 454.64 249.23 452.37 248.38 450.17 C 249.77 448.69 249.78 446.31 248.40 444.83 Z" />
<path fill="#818181" d=" M 264.92 443.82 C 263.14 443.29 263.11 438.69 264.96 438.24 C 265.04 440.10 265.03 441.96 264.92 443.82 Z" />
<path fill="#eceded" d=" M 310.27 438.20 C 313.91 436.62 316.21 441.17 316.07 444.18 C 316.06 445.84 316.06 449.16 316.05 450.81 C 316.07 453.88 313.37 457.12 310.20 456.86 C 304.79 452.13 304.28 442.58 310.27 438.20 Z" />
<path fill="#e6e8e8" d=" M 227.06 438.90 C 228.42 439.00 229.96 438.90 230.88 440.12 C 229.91 445.04 230.15 450.05 231.00 454.98 C 229.67 455.19 228.73 454.70 228.19 453.50 C 226.87 449.99 225.30 454.68 223.75 455.76 C 219.35 459.75 216.05 451.80 216.03 448.08 C 220.09 448.01 224.16 447.95 228.23 447.91 C 228.31 446.67 228.47 444.18 228.55 442.93 C 228.08 441.57 227.57 440.23 227.06 438.90 Z" />
<path fill="#8c8e8d" d=" M 215.00 452.03 C 213.13 452.29 213.24 443.55 214.98 442.97 C 214.99 445.99 214.96 448.97 215.00 452.03 Z" />
<path fill="#8b8d8c" d=" M 226.38 443.23 C 231.45 447.38 211.58 447.76 216.62 443.23 C 217.88 446.14 225.28 446.25 226.38 443.23 Z" />
<path fill="#939493" d=" M 228.55 442.93 C 228.47 444.18 228.31 446.67 228.23 447.91 C 227.05 446.40 227.58 444.37 228.55 442.93 Z" />
<path fill="#6d6e6e" d=" M 287.23 443.05 C 288.74 442.95 290.25 442.96 291.76 443.04 C 291.72 444.86 287.29 444.86 287.23 443.05 Z" />
<path fill="#cacaca" d=" M 299.98 459.13 C 300.03 453.65 299.83 448.15 300.65 442.73 C 298.72 447.65 304.66 455.83 299.98 459.13 Z" />
<path fill="#8a8c8b" d=" M 305.07 452.91 C 303.16 449.76 303.13 446.45 304.97 442.98 C 305.00 446.30 304.99 449.56 305.07 452.91 Z" />
<path fill="#afb0b2" d=" M 246.96 450.81 C 245.07 449.97 245.09 445.04 246.94 444.19 C 246.94 445.84 246.96 449.15 246.96 450.81 Z" />
<path fill="#727272" d=" M 258.93 443.93 C 261.89 445.32 260.36 448.65 259.23 451.07 C 259.16 449.29 259.00 445.71 258.93 443.93 Z" />
<path fill="#a9a9a9" d=" M 316.07 444.18 C 317.91 445.05 317.92 449.96 316.05 450.81 C 316.06 449.16 316.06 445.84 316.07 444.18 Z" />
<path fill="#8f8f8f" d=" M 318.06 444.18 C 319.91 445.04 319.91 449.95 318.06 450.82 C 318.06 449.16 318.06 445.84 318.06 444.18 Z" />
<path fill="#8a8b8b" d=" M 248.38 450.17 C 248.39 448.84 248.39 446.17 248.40 444.83 C 249.78 446.31 249.77 448.69 248.38 450.17 Z" />
<path fill="#9a9a9a" d=" M 287.26 446.75 C 288.59 446.53 291.26 446.09 292.60 445.86 C 292.41 447.90 288.62 447.65 287.26 446.75 Z" />
<path fill="#797979" d=" M 258.11 456.90 C 258.56 456.22 259.08 455.60 259.66 455.03 C 260.04 456.19 260.20 457.39 260.14 458.63 C 258.97 458.83 258.29 458.25 258.11 456.90 Z" />
<path fill="#929191" d=" M 235.05 456.07 C 236.37 455.80 237.70 455.84 239.01 456.18 C 238.21 457.75 235.72 457.74 235.05 456.07 Z" />
<path fill="#959698" d=" M 251.86 456.31 C 253.17 455.87 254.50 455.76 255.87 455.99 C 255.15 457.58 252.78 457.87 251.86 456.31 Z" />
<path fill="#a3a4a4" d=" M 235.23 469.04 C 236.41 468.97 237.59 468.97 238.77 469.04 C 239.09 470.84 234.91 470.84 235.23 469.04 Z" />
</svg>
